<?xml version="1.0" encoding="UTF-8"?>
<svg version="1.1" viewBox="0 0 158.71 157.3" xmlns="http://www.w3.org/2000/svg">
<path d="m60.873 57.256v-14.943c0-1.2586 0.4722-2.2029 1.5728-2.8314l30.044-17.302c4.0899-2.3593 8.9662-3.4599 13.999-3.4599 18.876 0 30.831 14.629 30.831 30.201 0 1.1007 0 2.3593-0.158 3.6178l-31.145-18.247c-1.8872-1.1006-3.7754-1.1006-5.6629 0l-39.481 22.965zm70.154 58.2v-35.707c0-2.2028-0.9446-3.7756-2.8318-4.8763l-39.481-22.965 12.898-7.3934c1.1007-0.6285 2.0453-0.6285 3.1458 0l30.044 17.302c8.6523 5.0341 14.471 15.73 14.471 26.111 0 11.954-7.0769 22.965-18.246 27.527v0.0021zm-79.435-31.46-12.898-7.5497c-1.1007-0.6285-1.5728-1.5728-1.5728-2.8314v-34.605c0-16.83 12.898-29.572 30.358-29.572 6.607 0 12.74 2.2029 17.932 6.1349l-30.987 17.932c-1.8871 1.1007-2.8314 2.6735-2.8314 4.8764v45.616l-0.0014-0.0015zm27.763 16.044-18.483-10.381v-22.021l18.483-10.381 18.481 10.381v22.021l-18.481 10.381zm11.876 47.819c-6.607 0-12.74-2.2031-17.932-6.1344l30.987-17.933c1.8872-1.1005 2.8318-2.6728 2.8318-4.8759v-45.616l13.056 7.5498c1.1005 0.6285 1.5723 1.5728 1.5723 2.8314v34.605c0 16.83-13.056 29.572-30.515 29.572v1e-3zm-37.28-35.077-30.044-17.302c-8.652-5.0343-14.471-15.73-14.471-26.111 0-12.112 7.2356-22.965 18.403-27.527v35.863c0 2.2028 0.9443 3.7756 2.8314 4.8763l39.325 22.807-12.898 7.3938c-1.1007 0.6287-2.045 0.6287-3.1456 0zm-1.7293 25.797c-17.774 0-30.831-13.371-30.831-29.887 0-1.2585 0.1578-2.5169 0.3143-3.7754l30.987 17.932c1.8871 1.1005 3.7757 1.1005 5.6628 0l39.481-22.807v14.944c0 1.2585-0.4721 2.2021-1.5728 2.8308l-30.044 17.302c-4.0898 2.359-8.9662 3.4605-13.999 3.4605h0.0014zm39.009 18.717c19.033 0 34.919-13.527 38.538-31.459 17.616-4.562 28.942-21.078 28.942-37.908 0-11.011-4.719-21.707-13.213-29.414 0.7867-3.3035 1.2595-6.607 1.2595-9.909 0-22.493-18.247-39.325-39.325-39.325-4.2461 0-8.3363 0.6285-12.426 2.045-7.0792-6.9213-16.832-11.325-27.527-11.325-19.033 0-34.919 13.527-38.538 31.459-17.617 4.5619-28.942 21.078-28.942 37.908 0 11.011 4.7184 21.706 13.212 29.414-0.7865 3.3035-1.2586 6.6067-1.2586 9.9092 0 22.492 18.247 39.324 39.325 39.324 4.2462 0 8.3362-0.6277 12.426-2.0441 7.0776 6.921 16.83 11.325 27.527 11.325z"/>
</svg>
